<?xml version="1.0" encoding="utf-8"?>
<!-- Generator: Adobe Illustrator 19.2.1, SVG Export Plug-In . SVG Version: 6.00 Build 0)  -->
<svg version="1.1" id="Layer_1" xmlns="http://www.w3.org/2000/svg" xmlns:xlink="http://www.w3.org/1999/xlink" x="0px" y="0px"
	 viewBox="0 0 1792 1792" style="enable-background:new 0 0 1792 1792;" xml:space="preserve">
<style type="text/css">
	.st0{fill:#787878;}
</style>
<path class="st0" d="M1591,1448c37.3,59.3,44.5,110.2,21.5,152.5s-69.8,63.5-140.5,63.5H320c-70.7,0-117.5-21.2-140.5-63.5
	s-15.8-93.2,21.5-152.5l503-793V256h-64c-17.3,0-32.3-6.3-45-19s-19-27.7-19-45s6.3-32.3,19-45s27.7-19,45-19h512
	c17.3,0,32.3,6.3,45,19s19,27.7,19,45s-6.3,32.3-19,45s-27.7,19-45,19h-64v399L1591,1448z M812,723l-272,429h712L980,723l-20-31V256
	H832v436L812,723z"/>
</svg>
